<?xml version="1.0" encoding="utf-8"?>
<!-- Generator: Adobe Illustrator 24.2.3, SVG Export Plug-In . SVG Version: 6.00 Build 0)  -->
<svg version="1.1" id="Layer_1" xmlns="http://www.w3.org/2000/svg" xmlns:xlink="http://www.w3.org/1999/xlink" x="0px" y="0px"
	 viewBox="0 0 500 500" style="enable-background:new 0 0 500 500;" xml:space="preserve">
<style type="text/css">
	.st0{fill:none;stroke:#1D1D1B;strokeWidth:1.8655;strokeLinecap:round;stroke-linejoin:round;stroke-miterlimit:10;}
	.st1{fill:#FFFFFF;stroke:#1D1D1B;strokeWidth:1.8655;strokeLinecap:round;stroke-linejoin:round;stroke-miterlimit:10;}
	.st2{fill:#FFFFFF;stroke:#1D1D1B;strokeWidth:1.7698;strokeLinecap:round;stroke-linejoin:round;stroke-miterlimit:10;}
	.st3{fill:none;stroke:#1D1D1B;strokeWidth:1.7544;strokeLinecap:round;stroke-linejoin:round;stroke-miterlimit:10;}
	.st4{fill:#1D1D1B;}
</style>
<g>
	<path class="st0" d="M114.92,235.63c38.19,7.09,78.6,1.61,113.53-15.38"/>
	<path class="st1" d="M282.39,261.28c0.73,2.89,1.59,5.85,2.58,8.98c4.02,12.7,8.26,25.43,9.99,38.69
		c2.13,16.32,0.04,33.96-9.87,47.09c-9.96,13.19-27.19,20.16-43.65,18.7s-31.8-10.93-41.44-24.36
		c-10.54-14.69-16.42-36.57-12.6-54.24c4.84-22.38,13.65-43.9,25.94-63.22c8.29-13.03,19.12-25.74,33.98-29.94
		c8.73-2.47,19.05-1.34,25.42,5.12c6.72,6.82,7.39,17.44,6.98,27.01C279.3,244.85,280.25,252.77,282.39,261.28z"/>
	<line class="st0" x1="263.88" y1="373.54" x2="242.79" y2="465.17"/>
	<path class="st2" d="M242.65,468.43c5.24-7.78,14.04-13.05,23.37-14.02c9.33-0.97,19.02,2.4,25.74,8.93
		C278.19,474.11,259.07,473.96,242.65,468.43z"/>
	<line class="st0" x1="224.33" y1="374.88" x2="203.25" y2="466.51"/>
	<path class="st2" d="M203.07,467.19c-2.47-9.05-9.11-16.87-17.63-20.78c-8.53-3.91-18.78-3.83-27.25,0.2
		C167.59,461.17,185.74,467.16,203.07,467.19z"/>
	<path class="st3" d="M386.98,241.55c-33.6,8.75-71.08,5.47-105.31-9.21"/>
	
		<ellipse transform="matrix(0.7071 -0.7071 0.7071 0.7071 -7.5394 237.7457)" class="st1" cx="283.21" cy="127.97" rx="100.09" ry="100.09"/>
	<path class="st4" d="M264.82,131.69c0,8.33,6.6,15.08,14.75,15.08c8.14,0,14.75-6.75,14.75-15.08s-6.6-15.08-14.75-15.08
		C271.42,116.61,264.82,123.36,264.82,131.69z"/>
	<path class="st4" d="M203.16,126.66c0,8.33,6.6,15.08,14.75,15.08c8.14,0,14.75-6.75,14.75-15.08c0-8.33-6.6-15.08-14.75-15.08
		C209.76,111.58,203.16,118.33,203.16,126.66z"/>
	<path class="st2" d="M246.99,172.01c5.89,6.99,15.25,10.89,24.36,10.18c9.11-0.72,17.74-6.04,22.47-13.86
		c2,5.58,4.79,11.35,5.15,17.26c0.37,5.91-1.14,12.21-5.32,16.4c-4.26,4.27-10.81,5.75-16.76,4.73c-5.94-1.03-11.31-4.31-15.75-8.39
		C254.05,191.79,249.09,181.41,246.99,172.01z"/>
	<rect x="99.48" y="249.03" class="st2" width="289.54" height="157.5"/>
	<path class="st1" d="M372.62,238.48c4.64-5.05,12.68-6.58,18.85-3.59s9.95,10.25,8.86,17.02c-1.09,6.77-6.96,12.48-13.75,13.38
		c-3.99,0.53-8.32-0.6-11.09-3.52c-3.43-3.63-3.88-9.18-3.15-14.12C372.4,247.2,372.62,238.92,372.62,238.48z"/>
	<path class="st1" d="M128.6,237.18c-4.64-5.05-12.68-6.58-18.85-3.59c-6.17,2.99-9.95,10.25-8.86,17.02
		c1.09,6.77,6.96,12.48,13.75,13.38c3.99,0.53,8.32-0.6,11.09-3.53c3.43-3.63,3.88-9.18,3.15-14.12
		C128.82,245.9,128.6,237.62,128.6,237.18z"/>
</g>
</svg>
