<?xml version="1.0" encoding="utf-8"?>
<!-- Generator: Adobe Illustrator 24.2.3, SVG Export Plug-In . SVG Version: 6.00 Build 0)  -->
<svg version="1.1" id="Layer_1" xmlns="http://www.w3.org/2000/svg" xmlns:xlink="http://www.w3.org/1999/xlink" x="0px" y="0px"
	 viewBox="0 0 500 500" style="enable-background:new 0 0 500 500;" xml:space="preserve">
<style type="text/css">
	.st0{fill:#FFFFFF;stroke:#1D1D1B;strokeWidth:1.8655;strokeLinecap:round;stroke-linejoin:round;stroke-miterlimit:10;}
	.st1{fill:none;stroke:#1D1D1B;strokeWidth:1.8655;strokeLinecap:round;stroke-linejoin:round;stroke-miterlimit:10;}
	.st2{fill:none;stroke:#1D1D1B;strokeWidth:1.7698;strokeLinecap:round;stroke-linejoin:round;stroke-miterlimit:10;}
	.st3{fill:#FFFFFF;stroke:#1D1D1B;strokeWidth:1.7698;strokeLinecap:round;stroke-linejoin:round;stroke-miterlimit:10;}
	.st4{fill:#1D1D1B;}
</style>
<g>
	<path class="st0" d="M201.69,262.39c-0.69,2.74-1.5,5.54-2.44,8.5c-3.81,12.02-7.82,24.08-9.46,36.63
		c-2.02,15.45-0.04,32.16,9.35,44.59c9.43,12.49,25.75,19.09,41.33,17.7c15.59-1.39,30.11-10.35,39.23-23.07
		c9.98-13.91,15.54-34.63,11.93-51.36c-4.58-21.19-12.92-41.56-24.56-59.86c-7.85-12.34-18.1-24.37-32.17-28.35
		c-8.27-2.34-18.04-1.27-24.07,4.85c-6.36,6.46-7,16.51-6.61,25.57C204.61,246.84,203.71,254.33,201.69,262.39z"/>
	<line class="st1" x1="216.39" y1="369.02" x2="176.61" y2="448.67"/>
	<line class="st2" x1="244.23" y1="370.83" x2="238.52" y2="450.79"/>
	<path class="st3" d="M174.75,451.13c0.85-8.84-2.39-17.99-8.63-24.32c-6.23-6.32-15.34-9.7-24.19-8.98
		C145.36,433.88,159.42,445.29,174.75,451.13z"/>
	<path class="st3" d="M239.1,451.16c6.09-6.46,15.12-10.05,23.98-9.52c8.87,0.53,17.4,5.15,22.69,12.29
		C271.44,461.91,253.59,458.84,239.1,451.16z"/>
	<path class="st1" d="M93.94,238.12c35.25,10.49,73.85,9.37,108.43-3.14"/>
	<path class="st1" d="M257.44,216.31c6.97,13.65,71.46,59.83,116.04,74.11"/>
	<path class="st0" d="M92.2,236.76c0.88-3.22,1.76-6.57,1.15-9.85c-0.61-3.28-3.2-6.45-6.53-6.56c-3.33-0.11-6.27,4.14-4.25,6.79
		c-4.59-2.29-10.26-3.66-15.25-4.85c-2.72-0.65-6.02-0.96-7.89,1.12c-2.13,2.36-0.92,6.18,0.96,8.75c3.39,4.63,8.65,7.84,14.32,8.74
		C80.38,241.81,87.55,240.12,92.2,236.76z"/>
	<path class="st0" d="M368.46,293.62c-1.02,2.9,0.31,6.32,2.75,8.19c2.45,1.87,5.79,2.31,8.79,1.65c5.31-1.16,9.78-6.05,9.78-11.48
		c0-5.43-5.11-10.53-10.51-9.89c-5.46,0.65-8.94,5.98-11.62,10.78"/>
	<polygon class="st0" points="344.61,322.77 360.47,235.2 441.7,244.72 418.22,346.25 	"/>
	<polyline class="st3" points="362.37,265.66 371.26,252.97 378.87,271.37 393.47,256.77 400.45,278.98 427.74,254.87 	"/>
	<polyline class="st3" points="360.47,308.81 364.28,295.48 374.43,316.42 390.93,294.21 393.47,313.89 424.56,283.43 	"/>
	<polygon class="st3" points="231.01,228.85 229.11,276.44 253.22,299.29 260.2,270.1 239.9,225.68 	"/>
	<circle class="st3" cx="237.36" cy="230.12" r="10.79"/>
	
		<ellipse transform="matrix(0.7071 -0.7071 0.7071 0.7071 -37.446 181.946)" class="st0" cx="200.91" cy="136.17" rx="94.77" ry="94.77"/>
	<path class="st4" d="M218.32,139.69c0,7.89-6.25,14.28-13.96,14.28c-7.71,0-13.96-6.39-13.96-14.28c0-7.89,6.25-14.28,13.96-14.28
		C212.07,125.41,218.32,131.8,218.32,139.69z"/>
	<ellipse class="st4" cx="262.74" cy="134.93" rx="13.96" ry="14.28"/>
	<path class="st3" d="M248.53,179.14c-5.58,6.61-14.44,10.32-23.06,9.64c-8.63-0.68-16.8-5.72-21.27-13.13
		c-1.89,5.28-4.53,10.74-4.88,16.34c-0.35,5.6,1.08,11.56,5.04,15.53c4.04,4.04,10.24,5.45,15.87,4.47
		c5.63-0.97,10.71-4.08,14.91-7.95C241.84,197.87,246.54,188.04,248.53,179.14z"/>
</g>
</svg>
