<?xml version="1.0" encoding="utf-8"?>
<!-- Generator: Adobe Illustrator 24.2.3, SVG Export Plug-In . SVG Version: 6.00 Build 0)  -->
<svg version="1.1" id="Layer_1" xmlns="http://www.w3.org/2000/svg" xmlns:xlink="http://www.w3.org/1999/xlink" x="0px" y="0px"
	 viewBox="0 0 500 500" style="enable-background:new 0 0 500 500;" xml:space="preserve">
<style type="text/css">
	.st0{fill:none;stroke:#1D1D1B;strokeWidth:1.8655;strokeLinecap:round;stroke-linejoin:round;stroke-miterlimit:10;}
	.st1{fill:#FFFFFF;stroke:#1D1D1B;strokeWidth:1.7698;strokeLinecap:round;stroke-linejoin:round;stroke-miterlimit:10;}
	.st2{fill:#FFFFFF;stroke:#1D1D1B;strokeWidth:1.8655;strokeLinecap:round;stroke-linejoin:round;stroke-miterlimit:10;}
	.st3{fill:none;stroke:#1D1D1B;strokeWidth:1.9202;strokeLinecap:round;stroke-linejoin:round;stroke-miterlimit:10;}
	.st4{fill:none;stroke:#1D1D1B;strokeWidth:1.9602;strokeLinecap:round;stroke-linejoin:round;stroke-miterlimit:10;}
	.st5{fill:none;stroke:#1D1D1B;strokeWidth:1.7698;strokeLinecap:round;stroke-linejoin:round;stroke-miterlimit:10;}
	.st6{fill:#1D1D1B;}
	.st7{fill:none;stroke:#1D1D1B;strokeWidth:1.3991;strokeLinecap:round;stroke-linejoin:round;stroke-miterlimit:10;}
</style>
<g>
	<g>
		<line class="st0" x1="373.37" y1="343.04" x2="378.39" y2="421.2"/>
		<path class="st1" d="M338.5,418.17c5.36-5.69,13.3-8.84,21.1-8.38c7.8,0.46,15.31,4.53,19.96,10.81
			C366.95,427.62,351.25,424.93,338.5,418.17z"/>
		<path class="st2" d="M385.04,252.73c1.04,2.25,2.21,4.54,3.5,6.95c5.26,9.77,10.71,19.52,14.18,30.1
			c4.28,13.02,5.31,27.78-0.76,40.07c-6.1,12.34-19.12,20.72-32.82,22.08c-13.7,1.36-27.72-4-37.69-13.5
			c-10.91-10.38-19.12-27.38-18.74-42.43c0.48-19.06,4.35-38.04,11.4-55.76c4.76-11.95,11.64-24.03,23.15-29.78
			c6.76-3.38,15.38-4.06,21.6,0.24c6.56,4.54,8.76,13.12,9.91,21.01C379.96,239.77,381.97,246.1,385.04,252.73z"/>
		<circle class="st2" cx="353.46" cy="140.59" r="83.36"/>
		<line class="st3" x1="352.53" y1="351.23" x2="357.55" y2="434.04"/>
		<path class="st1" d="M357.41,436.22c-5.36-5.69-13.3-8.84-21.09-8.38c-7.8,0.46-15.31,4.53-19.96,10.81
			C328.97,445.67,344.67,442.98,357.41,436.22z"/>
		<path class="st0" d="M318.72,332.37c15.56-28.36,21.76-61.76,17.42-93.82"/>
		<path class="st0" d="M324.09,243.12c-20.57,22.62-47.91,38.99-77.55,46.46"/>
		<path class="st2" d="M316.87,333.38c2.65,1.26,5.4,2.59,7.23,4.88c1.84,2.29,2.47,5.83,0.63,8.12c-1.84,2.29-6.36,1.81-6.97-1.06
			c-1.1,4.37-3.43,8.95-5.5,12.96c-1.13,2.19-2.81,4.57-5.27,4.63c-2.8,0.07-4.66-2.93-5.29-5.66c-1.15-4.91-0.28-10.27,2.37-14.57
			C306.73,338.37,311.96,334.55,316.87,333.38z"/>
		<path class="st2" d="M247.26,289.83c1.63-2.64,3.31-5.46,3.28-8.56c-0.02-3.1-2.53-6.39-5.61-6.03c-1.9,0.22-3.44,1.76-4.22,3.51
			c-0.78,1.75-0.92,3.7-1.06,5.61c-3.32-1.77-7.98-2.69-11.75-2.57c-3.76,0.12-7.72,2.96-7.64,6.72c0.08,3.52,3.45,6.06,6.75,7.28
			C233.25,298.08,241.4,292.95,247.26,289.83z"/>
	</g>
	<g>
		<line class="st4" x1="108.45" y1="335.33" x2="103.42" y2="421.62"/>
		<line class="st5" x1="137.17" y1="356.63" x2="132.14" y2="426.96"/>
		<path class="st1" d="M104.23,423.06c-5.36-5.69-13.3-8.84-21.1-8.38c-7.8,0.46-15.31,4.53-19.96,10.81
			C75.79,432.51,91.48,429.82,104.23,423.06z"/>
		<path class="st1" d="M132.65,427.28c5.36-5.69,13.3-8.84,21.09-8.38c7.8,0.46,15.31,4.53,19.96,10.81
			C161.1,436.74,145.4,434.04,132.65,427.28z"/>
		<path class="st2" d="M117.68,255.71c-1.04,2.25-2.21,4.54-3.5,6.95c-5.26,9.77-10.71,19.52-14.18,30.1
			c-4.28,13.02-5.31,27.78,0.76,40.07c6.1,12.34,19.12,20.72,32.82,22.08s27.72-4,37.69-13.5c10.91-10.38,19.12-27.38,18.74-42.43
			c-0.48-19.06-4.35-38.04-11.4-55.76c-4.76-11.95-11.64-24.03-23.15-29.78c-6.76-3.38-15.38-4.06-21.6,0.24
			c-6.56,4.54-8.76,13.12-9.91,21.01C122.76,242.74,120.75,249.07,117.68,255.71z"/>
		<circle class="st2" cx="149.26" cy="143.56" r="83.36"/>
		<path class="st6" d="M157.08,139.47c0,6.58-5.33,11.91-11.91,11.91c-6.58,0-11.91-5.33-11.91-11.91c0-6.58,5.33-11.91,11.91-11.91
			C151.75,127.56,157.08,132.89,157.08,139.47z"/>
		<path class="st6" d="M215.14,139.1c0,6.58-5.33,11.91-11.91,11.91c-6.58,0-11.91-5.33-11.91-11.91s5.33-11.91,11.91-11.91
			C209.8,127.19,215.14,132.52,215.14,139.1z"/>
		<path class="st7" d="M192.06,171.48c0,12.33-10,22.33-22.33,22.33s-22.33-10-22.33-22.33"/>
		<path class="st0" d="M205.22,282.58c-31.08-8.97-59.14-28.12-78.81-53.8"/>
		<path class="st2" d="M207.15,282.4c0.88-2.8,1.81-5.7,3.82-7.84c2.01-2.14,5.43-3.25,7.95-1.75c2.52,1.5,2.68,6.04-0.08,7.05
			c4.48,0.48,9.34,2.16,13.59,3.65c2.32,0.81,4.91,2.15,5.32,4.58c0.46,2.76-2.26,5.02-4.87,6.03c-4.71,1.82-10.13,1.7-14.75-0.33
			C213.51,291.75,209,287.09,207.15,282.4z"/>
	</g>
</g>
</svg>
