<?xml version="1.0" encoding="utf-8"?>
<!-- Generator: Adobe Illustrator 24.2.3, SVG Export Plug-In . SVG Version: 6.00 Build 0)  -->
<svg version="1.1" id="Layer_1" xmlns="http://www.w3.org/2000/svg" xmlns:xlink="http://www.w3.org/1999/xlink" x="0px" y="0px"
	 viewBox="0 0 500 500" style="enable-background:new 0 0 500 500;" xml:space="preserve">
<style type="text/css">
	.st0{fill:#FFFFFF;stroke:#1D1D1B;strokeWidth:1.8655;strokeLinecap:round;stroke-linejoin:round;stroke-miterlimit:10;}
	.st1{fill:none;stroke:#1D1D1B;strokeWidth:1.3991;strokeLinecap:round;stroke-linejoin:round;stroke-miterlimit:10;}
	.st2{fill:none;stroke:#1D1D1B;strokeWidth:1.8655;strokeLinecap:round;stroke-linejoin:round;stroke-miterlimit:10;}
	.st3{fill:none;stroke:#1D1D1B;strokeWidth:1.7698;strokeLinecap:round;stroke-linejoin:round;stroke-miterlimit:10;}
	.st4{fill:#FFFFFF;stroke:#1D1D1B;strokeWidth:1.7698;strokeLinecap:round;stroke-linejoin:round;stroke-miterlimit:10;}
	.st5{fill:#1D1D1B;}
	.st6{fill:#FFFFFF;stroke:#1D1D1B;strokeWidth:1.7652;strokeLinecap:round;stroke-linejoin:round;stroke-miterlimit:10;}
	.st7{fill:none;stroke:#1D1D1B;strokeWidth:1.7652;strokeLinecap:round;stroke-linejoin:round;stroke-miterlimit:10;}
</style>
<g>
	<path class="st0" d="M383.85,189.53l-38.37-83.16c14.05-13.29,18.81-34.53,10.26-53.06c-8.67-18.8-28.35-29.02-47.85-26.56
		l17.04,36.92l-25.46,11.75l-17.04-36.92c-14.52,13.25-19.52,34.85-10.84,53.65c8.55,18.53,27.79,28.7,47.03,26.63l38.37,83.16
		c-14.05,13.29-18.81,34.53-10.26,53.06c8.67,18.8,28.35,29.02,47.85,26.56l-17.04-36.92l25.46-11.75l17.04,36.92
		c14.52-13.25,19.52-34.85,10.84-53.65C422.32,197.63,403.08,187.46,383.85,189.53z"/>
	<path class="st0" d="M181.62,284.63c-0.63,2.52-1.38,5.1-2.25,7.82c-3.51,11.07-7.2,22.16-8.7,33.72
		c-1.86,14.22-0.04,29.6,8.6,41.04c8.68,11.49,23.7,17.57,38.04,16.3c14.35-1.28,27.72-9.53,36.11-21.23
		c9.18-12.8,14.31-31.87,10.98-47.27c-4.22-19.5-11.9-38.26-22.61-55.1c-7.22-11.36-16.66-22.43-29.61-26.09
		c-7.61-2.15-16.6-1.17-22.15,4.46c-5.86,5.95-6.44,15.2-6.08,23.54C184.31,270.31,183.48,277.21,181.62,284.63z"/>
	
		<ellipse transform="matrix(0.7071 -0.7071 0.7071 0.7071 -66.1308 177.2516)" class="st0" cx="180.9" cy="168.45" rx="87.23" ry="87.23"/>
	<path class="st1" d="M231.74,175.97c5.45,11.69,0.39,25.6-11.3,31.05c-11.69,5.45-25.6,0.39-31.05-11.3
		c8.19,1.25,16.65-0.12,24.14-3.66C221.01,188.52,227.51,183.09,231.74,175.97z"/>
	<line class="st2" x1="196.44" y1="383.47" x2="191.18" y2="465.24"/>
	<line class="st3" x1="220.19" y1="387.95" x2="214.93" y2="461.54"/>
	<path class="st4" d="M192.03,466.75c-5.61-5.95-13.91-9.25-22.07-8.76c-8.16,0.48-16.02,4.74-20.88,11.31
		C162.26,476.64,178.69,473.82,192.03,466.75z"/>
	<path class="st4" d="M215.47,461.88c5.61-5.95,13.91-9.25,22.07-8.76c8.16,0.48,16.02,4.74,20.88,11.31
		C245.23,471.77,228.81,468.95,215.47,461.88z"/>
	<path class="st2" d="M98.95,315.53c32.52-9.38,61.88-29.42,82.46-56.3"/>
	<path class="st2" d="M235.44,245.62c14.02-1.56,74.77-42.06,101.57-75.8"/>
	<path class="st0" d="M96.93,315.34c-0.92-2.93-1.9-5.97-4-8.2c-2.1-2.24-5.68-3.41-8.32-1.83c-2.64,1.57-2.8,6.32,0.08,7.38
		c-4.69,0.5-9.77,2.26-14.22,3.82c-2.43,0.85-5.14,2.25-5.56,4.79c-0.48,2.89,2.36,5.25,5.09,6.31c4.93,1.9,10.6,1.78,15.44-0.34
		C90.28,325.12,95,320.26,96.93,315.34z"/>
	<path class="st0" d="M338.14,175.2c2.17,1.82,5.54,1.79,7.94,0.29c2.4-1.5,3.87-4.23,4.28-7.03c0.72-4.95-2.02-10.39-6.7-12.15
		c-4.68-1.76-10.73,0.98-11.93,5.83c-1.22,4.91,2.24,9.64,5.5,13.51"/>
	<path class="st5" d="M187.03,165.72c0,8.39-6.8,15.19-15.19,15.19c-8.39,0-15.19-6.8-15.19-15.19c0-8.39,6.8-15.19,15.19-15.19
		C180.23,150.54,187.03,157.34,187.03,165.72z"/>
	<path class="st5" d="M238.43,143.92c0,8.39-6.8,15.19-15.19,15.19c-8.39,0-15.19-6.8-15.19-15.19s6.8-15.19,15.19-15.19
		C231.63,128.73,238.43,135.53,238.43,143.92z"/>
	<path class="st6" d="M173.95,80.14c-9.28-9.35-18.86-18.92-30.93-24.21c-12.07-5.28-27.37-5.36-37.29,3.3
		c-8.46,7.39-11.33,19.63-10.06,30.78c1.27,11.16,6.1,21.56,10.92,31.7L173.95,80.14z"/>
	<line class="st7" x1="106.85" y1="120.24" x2="219.85" y2="56.37"/>
</g>
</svg>
