<svg version="1.2" xmlns="http://www.w3.org/2000/svg" viewBox="0 0 500 500" width="500" height="500">
	<title>4-svg</title>
	<style>
		.s0 { fill: #ffffff;stroke: #1d1d1b;strokeLinecap: round;stroke-linejoin: round;strokeWidth: 1.9 } 
		.s1 { fill: #1d1d1b } 
		.s2 { fill: none;stroke: #1d1d1b;strokeLinecap: round;stroke-linejoin: round;strokeWidth: 1.4 } 
		.s3 { fill: none;stroke: #1d1d1b;strokeLinecap: round;stroke-linejoin: round;strokeWidth: 1.9 } 
		.s4 { fill: none;stroke: #1d1d1b;strokeLinecap: round;stroke-linejoin: round;strokeWidth: 1.8 } 
		.s5 { fill: #ffffff;stroke: #1d1d1b;strokeLinecap: round;stroke-linejoin: round;strokeWidth: 1.8 } 
	</style>
	<g id="Layer">
		<path id="Layer" class="s0" d="m284.1 262.9c1.2 2.6 2.6 5.2 4.1 8 6 11.2 12.3 22.5 16.3 34.6 4.9 15 6.1 32-0.9 46.1-7 14.2-22 23.9-37.7 25.5-15.8 1.5-32-4.6-43.4-15.6-12.6-11.9-22-31.5-21.6-48.8 0.6-21.9 5-43.8 13.1-64.2 5.5-13.7 13.4-27.6 26.7-34.3 7.8-3.8 17.7-4.6 24.8 0.3 7.6 5.2 10.1 15.1 11.5 24.2 1.3 9.3 3.6 16.6 7.1 24.2z"/>
		<path id="Layer" class="s0" d="m154.3 155.6c12.1 51.7 63.6 83.7 115.3 71.7 51.7-12.1 83.7-63.6 71.6-115.3-12-51.7-63.5-83.7-115.2-71.6-51.7 12-83.7 63.5-71.7 115.2z"/>
		<path id="Layer" class="s1" d="m267.9 116.7c7.6 0 13.7 6.1 13.7 13.7 0 7.6-6.1 13.7-13.7 13.7-7.6 0-13.7-6.1-13.7-13.7 0-7.6 6.1-13.7 13.7-13.7z"/>
		<path id="Layer" class="s1" d="m201.1 116.3c7.6 0 13.7 6.1 13.7 13.7 0 7.5-6.1 13.7-13.7 13.7-7.6 0-13.7-6.2-13.7-13.7 0-7.6 6.1-13.7 13.7-13.7z"/>
		<path id="Layer" fill-rule="evenodd" class="s2" d="m213.9 167.2c0 14.2 11.6 25.7 25.7 25.7 14.2 0 25.7-11.5 25.7-25.7"/>
		<path id="Layer" class="s3" d="m295.1 363l5.8 89.9"/>
		<path id="Layer" class="s4" d="m234.7 371.3l5.8 81"/>
		<path id="Layer" class="s5" d="m300 454.6c6.1-6.6 15.3-10.2 24.3-9.6 8.9 0.5 17.6 5.2 22.9 12.4-14.5 8.1-32.6 5-47.2-2.8z"/>
		<path id="Layer" class="s5" d="m239.9 452.7c-6.2-6.6-15.3-10.2-24.3-9.7-8.9 0.6-17.6 5.2-22.9 12.5 14.5 8 32.5 4.9 47.2-2.8z"/>
		<path id="Layer" fill-rule="evenodd" class="s3" d="m366.4 295.1c-35.8-10.3-68.1-32.4-90.7-61.9"/>
		<path id="Layer" fill-rule="evenodd" class="s3" d="m221.4 231.5c-26.8 22.7-60.5 37.3-95.4 41.4"/>
		<path id="Layer" class="s0" d="m368.6 294.9c1-3.2 2.1-6.6 4.4-9 2.3-2.5 6.2-3.8 9.1-2 2.9 1.7 3.1 6.9 0 8.1 5.1 0.5 10.7 2.5 15.6 4.2 2.7 0.9 5.7 2.4 6.1 5.2 0.6 3.2-2.6 5.8-5.6 7-5.4 2.1-11.6 1.9-17-0.4-5.3-2.4-10.5-7.7-12.6-13.1z"/>
		<path id="Layer" class="s0" d="m126.8 273.3c2.2-2.7 4.6-5.7 5-9.3 0.4-3.5-2-7.6-5.5-7.7-2.2 0-4.2 1.5-5.4 3.4-1.1 1.9-1.6 4.1-2 6.2-3.5-2.5-8.7-4.2-13-4.6-4.3-0.5-9.3 2.2-9.7 6.5-0.5 4 3 7.4 6.6 9.3 6.8 3.6 16.8-1.1 24-3.8z"/>
	</g>
</svg>