<?xml version="1.0" encoding="utf-8"?>
<!-- Generator: Adobe Illustrator 24.2.3, SVG Export Plug-In . SVG Version: 6.00 Build 0)  -->
<svg version="1.1" id="Layer_1" xmlns="http://www.w3.org/2000/svg" xmlns:xlink="http://www.w3.org/1999/xlink" x="0px" y="0px"
	 viewBox="0 0 500 500" style="enable-background:new 0 0 500 500;" xml:space="preserve">
<style type="text/css">
	.st0{fill:#FFFFFF;stroke:#1D1D1B;strokeWidth:1.8655;strokeLinecap:round;stroke-linejoin:round;stroke-miterlimit:10;}
	.st1{fill:#1D1D1B;}
	.st2{fill:none;stroke:#1D1D1B;strokeWidth:1.8655;strokeLinecap:round;stroke-linejoin:round;stroke-miterlimit:10;}
	.st3{fill:none;stroke:#1D1D1B;strokeWidth:1.7698;strokeLinecap:round;stroke-linejoin:round;stroke-miterlimit:10;}
	.st4{fill:#FFFFFF;stroke:#1D1D1B;strokeWidth:1.7698;strokeLinecap:round;stroke-linejoin:round;stroke-miterlimit:10;}
	.st5{fill:#FFFFFF;stroke:#1D1D1B;strokeWidth:2.0005;strokeLinecap:round;stroke-linejoin:round;stroke-miterlimit:10;}
</style>
<g>
	<path class="st0" d="M174.67,286.33c-1.23,2.65-2.6,5.35-4.13,8.18c-6.2,11.5-12.61,22.99-16.7,35.45
		c-5.04,15.33-6.26,32.72,0.9,47.19c7.18,14.53,22.51,24.41,38.64,26.01c16.13,1.6,32.65-4.72,44.39-15.9
		c12.84-12.23,22.51-32.24,22.06-49.96c-0.57-22.45-5.12-44.8-13.43-65.67c-5.6-14.08-13.71-28.3-27.27-35.07
		c-7.96-3.98-18.11-4.78-25.43,0.28c-7.72,5.34-10.31,15.45-11.67,24.75C180.65,271.06,178.28,278.52,174.67,286.33z"/>
	
		<ellipse transform="matrix(0.1678 -0.9858 0.9858 0.1678 24.2347 337.2384)" class="st0" cx="211.86" cy="154.27" rx="98.17" ry="98.17"/>
	<circle class="st1" cx="194.33" cy="140.24" r="14.02"/>
	<circle class="st1" cx="227.86" cy="208.12" r="7.23"/>
	<circle class="st1" cx="262.7" cy="139.8" r="14.02"/>
	<line class="st2" x1="163.43" y1="388.74" x2="157.52" y2="480.78"/>
	<line class="st3" x1="225.23" y1="397.29" x2="219.31" y2="480.12"/>
	<path class="st4" d="M158.47,482.47c-6.31-6.7-15.66-10.41-24.84-9.86c-9.18,0.54-18.03,5.34-23.5,12.73
		C124.97,493.6,143.46,490.43,158.47,482.47z"/>
	<path class="st4" d="M219.91,480.5c6.31-6.7,15.66-10.41,24.84-9.86c9.18,0.54,18.03,5.34,23.5,12.73
		C253.41,491.63,234.92,488.46,219.91,480.5z"/>
	<path class="st2" d="M236.92,249.42c8.12,10.9,16.39,21.83,26.68,30.71c10.29,8.88,22.88,15.65,36.43,16.74
		c18.27,1.48,36.44-7.84,48.14-21.96c11.7-14.12,17.43-32.48,18.79-50.76c1.36-18.28-1.37-36.63-5.05-54.59"/>
	<path class="st2" d="M148.26,360.83c-15.96-3.92-31.32-11.96-41.62-24.77c-10.3-12.81-14.83-30.77-9.38-46.27
		c5.35-15.2,19.34-26.09,34.47-31.65c15.13-5.56,31.49-6.57,47.58-7.52"/>
	<path class="st5" d="M171.62,349.62c2.87,6.67-1.02,14.75-8.69,18.06c-7.67,3.3-16.22,0.57-19.09-6.1
		c-2.87-6.67,1.02-14.75,8.69-18.06C160.2,340.22,168.75,342.95,171.62,349.62z"/>
	<path class="st5" d="M370.23,169.53c-4.36,4.35-12.03,3.73-16.91-0.02c-4.88-3.75-7.43-9.81-8.85-15.8
		c-1.94-8.21-2.14-16.83-0.57-25.12c0.58-3.06,2.15-6.72,5.26-6.83c2.64-0.09,4.49,2.53,5.61,4.92c3.53,7.51,5.07,15.95,4.41,24.22
		c2.65-2.67,7.8-2.63,10.98-0.61c3.18,2.02,4.91,5.9,4.84,9.67C374.93,163.73,372.89,166.87,370.23,169.53z"/>
	<g>
		<path class="st5" d="M378.4,57.58c0-11.38-9.22-20.6-20.6-20.6c-11.38,0-20.6,9.22-20.6,20.6c0,8.74,5.47,16.16,13.15,19.16v17.66
			h14.9V76.74C372.94,73.74,378.4,66.32,378.4,57.58z"/>
		<line class="st5" x1="325.81" y1="58.46" x2="311.35" y2="57.14"/>
		<line class="st5" x1="333.26" y1="36.98" x2="317.92" y2="23.39"/>
		<line class="st5" x1="390.6" y1="58.89" x2="405.06" y2="57.58"/>
		<line class="st5" x1="383.59" y1="36.98" x2="398.93" y2="23.39"/>
		<line class="st5" x1="358.24" y1="25.15" x2="358.24" y2="9.81"/>
	</g>
</g>
</svg>
