<svg version="1.2" xmlns="http://www.w3.org/2000/svg" viewBox="0 0 500 500" width="500" height="500">
	<title>looking-svg</title>
	<style>
		.s0 { fill: #ffffff;stroke: #1d1d1b;strokeLinecap: round;stroke-linejoin: round;strokeWidth: 1.8 } 
		.s1 { fill: #ffffff;stroke: #1d1d1b;strokeLinecap: round;stroke-linejoin: round;strokeWidth: 1.9 } 
		.s2 { fill: none;stroke: #1d1d1b;strokeLinecap: round;stroke-linejoin: round;strokeWidth: 1.9 } 
		.s3 { fill: none;stroke: #1d1d1b;strokeLinecap: round;stroke-linejoin: round;strokeWidth: 1.8 } 
		.s4 { fill: #1d1d1b } 
		.s5 { fill: #ffffff;stroke: #1d1d1b;strokeLinecap: round;stroke-linejoin: round;strokeWidth: 1.6 } 
	</style>
	<g id="Layer">
		<path id="Layer" class="s0" d="m188.8 159.1c2.6-2.1 4.3-5 5.8-8 1.3-2.7 2.5-5.5 2.6-8.5 0.2-3.1-0.9-6.3-3.3-8.1-2.6-1.9-6.3-1.8-9.1-0.3-5.5 2.9-9.1 11.8-9.9 17.7-1.2 8.2 7.9 11.9 13.9 7.2z"/>
		<path id="Layer" class="s1" d="m377.8 253.4c1.3 2.6 2.6 5.3 4.1 8.1 6.2 11.4 12.5 22.8 16.6 35.1 5 15.2 6.1 32.5-0.9 46.8-7.2 14.4-22.4 24.2-38.4 25.7-15.9 1.6-32.3-4.7-43.9-15.7-12.8-12.2-22.3-32-21.9-49.5 0.6-22.3 5.1-44.4 13.4-65.1 5.5-14 13.6-28.1 27-34.8 7.9-3.9 18-4.7 25.2 0.3 7.7 5.3 10.2 15.4 11.5 24.6 1.4 9.3 3.8 16.7 7.3 24.5z"/>
		<path id="Layer" class="s1" d="m253.2 203.8c38 38.1 99.5 38.1 137.5 0 38.1-38 38.1-99.5 0-137.5-38-38.1-99.5-38.1-137.5 0-38.1 38-38.1 99.5 0 137.5z"/>
		<path id="Layer" class="s2" d="m382.1 364.4l30.3 84.2"/>
		<path id="Layer" class="s3" d="m357.3 373.7l27.9 75.8"/>
		<path id="Layer" class="s0" d="m404 454.6c6.2-6.6 15.5-10.3 24.6-9.7 9.1 0.5 17.9 5.2 23.3 12.6-14.7 8.2-33.1 5-47.9-2.9z"/>
		<path id="Layer" class="s0" d="m385 452.3c-6.3-6.6-15.6-10.3-24.7-9.7-9.1 0.5-17.8 5.3-23.3 12.6 14.8 8.2 33.1 5 48-2.9z"/>
		<path id="Layer" class="s4" d="m301.9 116.1c8.1 0 14.7 7 14.7 15.6 0 8.7-6.6 15.6-14.7 15.6-8.2 0-14.8-6.9-14.8-15.6 0-8.6 6.6-15.6 14.8-15.6z"/>
		<path id="Layer" fill-rule="evenodd" class="s3" d="m308.4 232.6c-14.2 16.5-33.1 29.6-54.5 33.7-21.4 4-45.2-2-59.8-18.2-10.3-11.4-15.3-26.8-16.9-42.1-1.5-15.3 0.2-30.7 1.9-46"/>
		<path id="Layer" fill-rule="evenodd" class="s3" d="m368.8 220.8c-1.8 28.3-27.3 52.2-55.4 55.6-28.2 3.5-57-11.4-73.6-34.4-16.7-23-22.1-52.9-18.7-81.1"/>
		<g id="Layer">
			<path id="Layer" class="s0" d="m285.6 116.7c6.3 0 11.4 7.6 11.4 17 0 9.3-5.1 16.9-11.4 16.9-6.3 0-11.4-7.6-11.4-16.9 0-9.4 5.1-17 11.4-17z"/>
			<path id="Layer" class="s0" d="m167 142.1h112.6c0.8 0 1.4-0.6 1.4-1.3v-15.5c0-0.8-0.6-1.4-1.4-1.4h-112.6z"/>
			<path id="Layer" class="s5" d="m68.6 110.6h135.5v43h-135.5z"/>
			<path id="Layer" class="s0" d="m48.1 104h67.1v56.1h-67.1z"/>
		</g>
		<path id="Layer" class="s0" d="m229.3 159c2.6-2.1 4.3-5 5.8-8 1.3-2.7 2.5-5.5 2.6-8.5 0.2-3.1-0.9-6.3-3.3-8.1-2.6-1.9-6.3-1.8-9.1-0.3-5.5 2.9-9.1 11.8-9.9 17.7-1.2 8.2 7.9 11.9 13.9 7.2z"/>
		<path id="Layer" fill-rule="evenodd" class="s2" d="m310.8 170.3c-0.3 6.3-4.6 12.3-10.5 14.6-5.9 2.3-13.1 0.8-17.6-3.7"/>
	</g>
</svg>