<?xml version="1.0" encoding="utf-8"?>
<!-- Generator: Adobe Illustrator 24.2.3, SVG Export Plug-In . SVG Version: 6.00 Build 0)  -->
<svg version="1.1" id="Layer_1" xmlns="http://www.w3.org/2000/svg" xmlns:xlink="http://www.w3.org/1999/xlink" x="0px" y="0px"
	 viewBox="0 0 500 500" style="enable-background:new 0 0 500 500;" xml:space="preserve">
<style type="text/css">
	.st0{fill:none;stroke:#1D1D1B;strokeWidth:1.8655;strokeLinecap:round;stroke-linejoin:round;stroke-miterlimit:10;}
	.st1{fill:#FFFFFF;stroke:#1D1D1B;strokeWidth:1.8655;strokeLinecap:round;stroke-linejoin:round;stroke-miterlimit:10;}
	.st2{fill:none;stroke:#1D1D1B;strokeWidth:1.7698;strokeLinecap:round;stroke-linejoin:round;stroke-miterlimit:10;}
	.st3{fill:#FFFFFF;stroke:#1D1D1B;strokeWidth:1.7698;strokeLinecap:round;stroke-linejoin:round;stroke-miterlimit:10;}
	.st4{fill:#1D1D1B;}
</style>
<g>
	<path class="st0" d="M293.3,213.45c15.84,8.32,33.5,13.15,51.36,14.03c10.01,0.5,20.5-0.36,29.11-5.48
		c15.87-9.45,20.72-31.3,15.67-49.07c-5.05-17.77-17.79-32.22-30.8-45.34"/>
	<path class="st1" d="M357.67,169.14h-38.01c-1.88,0-3.41-1.54-3.41-3.41V86.14c0-1.88,1.54-3.41,3.41-3.41h38.01
		c1.88,0,3.41,1.54,3.41,3.41v79.59C361.09,167.61,359.55,169.14,357.67,169.14z"/>
	<path class="st1" d="M239.11,258.03c-0.7,2.8-1.54,5.67-2.5,8.7c-3.9,12.31-8,24.65-9.68,37.51c-2.07,15.82-0.04,32.93,9.57,45.66
		c9.66,12.79,26.36,19.55,42.32,18.13c15.96-1.42,30.83-10.6,40.17-23.62c10.22-14.24,15.92-35.46,12.21-52.58
		c-4.69-21.7-13.23-42.56-25.15-61.29c-8.04-12.63-18.53-24.95-32.94-29.02c-8.46-2.39-18.47-1.3-24.64,4.97
		c-6.52,6.61-7.17,16.91-6.77,26.18C242.11,242.1,241.18,249.78,239.11,258.03z"/>
	
		<ellipse transform="matrix(0.7071 -0.7071 0.7071 0.7071 -21.2729 206.2372)" class="st1" cx="238.31" cy="128.8" rx="97.03" ry="97.03"/>
	<line class="st0" x1="255.6" y1="367.98" x2="249.75" y2="458.95"/>
	<line class="st2" x1="290.26" y1="366.67" x2="340.51" y2="455.39"/>
	<path class="st3" d="M250.7,460.62c-6.24-6.62-15.48-10.29-24.55-9.75c-9.08,0.54-17.82,5.27-23.23,12.58
		C217.59,471.63,235.86,468.49,250.7,460.62z"/>
	<path class="st3" d="M341.21,455.32c0.82-9.06,5.83-17.65,13.3-22.82s17.28-6.85,26.04-4.44
		C374.05,443.54,357.74,452.35,341.21,455.32z"/>
	<path class="st0" d="M131.98,250.15c37.29,5.19,76.19-1.88,109.28-19.87"/>
	<path class="st1" d="M129.52,249.43c-3.06-1.52-6.25-3.08-9.66-3.12c-3.42-0.04-7.11,1.92-7.89,5.25
		c-0.78,3.33,2.91,7.12,5.97,5.62c-3.22,4.15-5.73,9.57-7.92,14.34c-1.19,2.6-2.17,5.85-0.46,8.15c1.95,2.61,6.03,2.16,8.98,0.79
		c5.33-2.48,9.61-7.12,11.64-12.63C132.22,262.3,131.96,254.77,129.52,249.43z"/>
	<path class="st4" d="M243.81,100.21c2.18,9.07-1,17.62-7.11,19.08c-6.11,1.47-12.82-4.7-15.01-13.77c-2.18-9.07,1-17.62,7.11-19.08
		S241.63,91.14,243.81,100.21z"/>
	<path class="st4" d="M299.04,84.61c2.18,9.07-1,17.62-7.11,19.08c-6.11,1.47-12.82-4.7-15.01-13.77c-2.18-9.07,1-17.62,7.11-19.08
		C290.14,69.38,296.86,75.54,299.04,84.61z"/>
	<path class="st4" d="M291.67,130.99c0.92,3.82-0.42,7.42-2.99,8.04c-2.57,0.62-5.4-1.98-6.32-5.8c-0.92-3.82,0.42-7.42,2.99-8.04
		C287.92,124.57,290.75,127.16,291.67,130.99z"/>
</g>
</svg>
