<?xml version="1.0" encoding="utf-8"?>
<!-- Generator: Adobe Illustrator 24.2.3, SVG Export Plug-In . SVG Version: 6.00 Build 0)  -->
<svg version="1.1" id="Layer_1" xmlns="http://www.w3.org/2000/svg" xmlns:xlink="http://www.w3.org/1999/xlink" x="0px" y="0px"
	 viewBox="0 0 500 500" style="enable-background:new 0 0 500 500;" xml:space="preserve">
<style type="text/css">
	.st0{fill:#FFFFFF;stroke:#1D1D1B;strokeWidth:1.7698;strokeLinecap:round;stroke-linejoin:round;stroke-miterlimit:10;}
	.st1{fill:none;stroke:#1D1D1B;strokeWidth:1.8655;strokeLinecap:round;stroke-linejoin:round;stroke-miterlimit:10;}
	.st2{fill:#FFFFFF;stroke:#1D1D1B;strokeWidth:1.8655;strokeLinecap:round;stroke-linejoin:round;stroke-miterlimit:10;}
	.st3{fill:#1D1D1B;}
</style>
<g>
	<path class="st0" d="M349.57,447.92c6.85,7.97,17.33,12.69,27.84,12.54c10.51-0.15,20.85-5.16,27.48-13.31
		C388.38,436.94,367.11,439.61,349.57,447.92z"/>
	<path class="st1" d="M113.69,291.16c13.48,2.46,27.56,2.59,40.73-1.18c13.17-3.78,25.39-11.68,33.01-23.06
		c9.65-14.41,11.13-33.34,6.28-49.99c-4.85-16.65-15.48-31.17-28.18-42.98"/>
	<path class="st2" d="M128.34,296.79c-0.68,3.58-4.05,6.3-7.67,6.76c-3.61,0.46-7.29-1.06-9.98-3.52
		c-4.75-4.33-6.45-11.98-3.23-17.55c3.22-5.57,11.47-7.77,16.62-3.92c5.21,3.9,5.63,11.42,5.53,17.93"/>
	<path class="st2" d="M188.58,282.45c0.61,3.28,1.12,6.7,1.57,10.35c1.84,14.81,3.48,29.75,7.91,44.07
		c5.45,17.61,15.83,34.61,32.06,43.35c16.31,8.78,37.12,7.83,53.2-1.36c16.08-9.18,27.28-26,30.81-44.18
		c3.87-19.89-0.37-44.92-12.52-61.13c-15.39-20.53-34.42-38.33-55.96-52.26c-14.53-9.4-31.5-17.28-48.6-14.61
		c-10.04,1.57-20.03,7.54-23.49,17.1c-3.66,10.09,0.62,21.22,5.51,30.77C184.05,264.27,186.78,272.79,188.58,282.45z"/>
	
		<ellipse transform="matrix(0.1036 -0.9946 0.9946 0.1036 19.9302 301.5233)" class="st2" cx="177.25" cy="139.7" rx="112.15" ry="112.15"/>
	<path class="st3" d="M122.1,208.77c-8.49-2.51-13.33-11.42-10.82-19.91c0.43-1.44,1.09-2.73,1.86-3.94
		c0.43,6.5,4.78,12.35,11.39,14.3c7.04,2.08,14.33-0.95,18.05-6.87c0.12,1.84-0.02,3.73-0.57,5.6
		C139.5,206.43,130.58,211.28,122.1,208.77z"/>
	<path class="st3" d="M200,207.85c-8.77,1.18-16.84-4.97-18.02-13.73c-0.2-1.49-0.12-2.94,0.08-4.36c3.06,5.75,9.42,9.31,16.25,8.39
		c7.28-0.98,12.68-6.73,13.66-13.66c0.87,1.63,1.51,3.41,1.77,5.35C214.92,198.6,208.77,206.67,200,207.85z"/>
	<path class="st0" d="M379.61,459.93c6.85,7.97,17.33,12.69,27.84,12.54c10.51-0.15,20.85-5.16,27.48-13.31
		C418.42,448.96,397.15,451.62,379.61,459.93z"/>
	<path class="st1" d="M131.77,295.98c8.87,10.44,19.68,19.46,32.27,24.88c12.59,5.42,27.04,7.05,40.16,3.06
		c16.59-5.04,29.73-18.75,36.52-34.71c6.79-15.95,7.76-33.93,5.42-51.11"/>
	<path class="st2" d="M133.84,302.36c-2.79,2.34-7.12,2.3-10.21,0.38c-3.09-1.93-4.97-5.44-5.5-9.04
		c-0.93-6.36,2.6-13.36,8.62-15.63c6.02-2.27,13.8,1.26,15.34,7.5c1.57,6.32-2.88,12.4-7.07,17.38"/>
	<path class="st1" d="M275.2,384.73c-2.47,15.17-4.95,30.68-2.41,45.84c2.54,15.16,11.04,30.2,25.06,36.5
		c9.83,4.42,21.07,4.1,31.8,3.11c16.29-1.51,32.45-4.4,48.25-8.62"/>
	<path class="st1" d="M234.41,382.15c1.81,12.22-0.84,24.61-1.51,36.94c-0.67,12.34,1.12,25.85,9.88,34.57
		c8.62,8.59,21.81,10.42,33.98,10.45c25.88,0.07,51.76-5.98,74.93-17.53"/>
</g>
</svg>
