<?xml version="1.0" encoding="utf-8"?>
<!-- Generator: Adobe Illustrator 24.2.3, SVG Export Plug-In . SVG Version: 6.00 Build 0)  -->
<svg version="1.1" id="Layer_1" xmlns="http://www.w3.org/2000/svg" xmlns:xlink="http://www.w3.org/1999/xlink" x="0px" y="0px"
	 viewBox="0 0 500 500" style="enable-background:new 0 0 500 500;" xml:space="preserve">
<style type="text/css">
	.st0{fill:#FFFFFF;stroke:#1D1D1B;strokeWidth:1.8655;strokeLinecap:round;stroke-linejoin:round;stroke-miterlimit:10;}
	.st1{fill:#1D1D1B;}
	.st2{fill:#FFFFFF;stroke:#1D1D1B;strokeWidth:1.7698;strokeLinecap:round;stroke-linejoin:round;stroke-miterlimit:10;}
	.st3{fill:none;stroke:#1D1D1B;strokeWidth:1.8655;strokeLinecap:round;stroke-linejoin:round;stroke-miterlimit:10;}
</style>
<g>
	<path class="st0" d="M259.07,232.62c-2.54,0.59-5.19,1.1-8.02,1.58c-11.5,1.94-23.11,3.72-34.14,7.67
		c-13.56,4.86-26.48,13.53-32.75,26.5c-6.3,13.03-4.85,29.24,2.87,41.49c7.72,12.24,21.22,20.41,35.54,22.56
		c15.66,2.34,35.06-1.82,47.3-11.85c15.5-12.71,28.75-28.17,38.9-45.47c6.84-11.67,12.42-25.18,9.76-38.44
		c-1.56-7.79-6.57-15.38-14.14-17.76c-8-2.51-16.54,1.21-23.83,5.35C273.11,228.47,266.56,230.89,259.07,232.62z"/>
	
		<ellipse transform="matrix(0.7071 -0.7071 0.7071 0.7071 -26.9996 278.5362)" class="st0" cx="322.72" cy="171.86" rx="87.64" ry="87.64"/>
	<path class="st1" d="M340.33,168.34c0,6.91-5.61,12.52-12.52,12.52c-6.91,0-12.52-5.61-12.52-12.52c0-6.91,5.61-12.52,12.52-12.52
		C334.72,155.82,340.33,161.42,340.33,168.34z"/>
	<path class="st1" d="M396.28,167.16c0,6.91-5.61,12.52-12.52,12.52c-6.91,0-12.52-5.61-12.52-12.52s5.61-12.52,12.52-12.52
		C390.67,154.64,396.28,160.25,396.28,167.16z"/>
	<path class="st2" d="M87.64,251.22c-1.04-8.15-5.84-15.74-12.75-20.17c-6.92-4.43-15.82-5.62-23.65-3.15
		C57.6,241.66,72.62,249.08,87.64,251.22z"/>
	<path class="st3" d="M253.4,232.5c-7.03-9.99-14.15-20.08-23.22-28.26c-9.08-8.18-20.42-14.42-32.61-15.18
		c-12.2-0.76-25.16,4.76-31.18,15.4c-3.72,6.59-4.55,14.39-4.85,21.95"/>
	<path class="st0" d="M162.28,227.33c-0.51,6.84-6.11,12.98-12.87,14.12c-6.77,1.14-14.06-2.82-16.8-9.11
		c-0.16-3.82,0.57-8.28,4.28-9.21c3.71-0.93,7.94,1.05,9.6,4.5C151.21,225.11,157.12,225.92,162.28,227.33z"/>
	<path class="st3" d="M317.01,263.94c36.17,7.42,74.77,2.44,107.88-13.92"/>
	<path class="st0" d="M427.9,248.48c-4.96-8.36-2.87-20.21,4.66-26.36c3.46-2.83,7.24-4.88,11.1-2.64
		c3.87,2.23,5.66,7.17,4.96,11.59c-0.69,4.41-3.5,8.27-6.93,11.13C438.25,245.04,431.92,246.53,427.9,248.48z"/>
	<path class="st3" d="M201.38,324.32c18.01-2.32,36.71-2.1,53.84,3.93c17.13,6.04,32.55,18.51,39.2,35.41
		c6.65,16.9,3.01,38.16-10.9,49.84"/>
	<path class="st3" d="M187.3,311.37c-18.96,17.28-49.34,20.53-71.53,7.65c-22.19-12.88-34.42-40.88-28.81-65.91"/>
	<path class="st2" d="M283.24,414.36c3.79-7.29,10.91-12.75,18.93-14.52c8.02-1.77,16.78,0.19,23.29,5.21
		C314.73,415.77,298.07,417.54,283.24,414.36z"/>
</g>
</svg>
