<?xml version="1.0" encoding="utf-8"?>
<!-- Generator: Adobe Illustrator 24.2.3, SVG Export Plug-In . SVG Version: 6.00 Build 0)  -->
<svg version="1.1" id="Layer_1" xmlns="http://www.w3.org/2000/svg" xmlns:xlink="http://www.w3.org/1999/xlink" x="0px" y="0px"
	 viewBox="0 0 500 500" style="enable-background:new 0 0 500 500;" xml:space="preserve">
<style type="text/css">
	.st0{fill:none;stroke:#1D1D1B;strokeWidth:1.8655;strokeLinecap:round;stroke-linejoin:round;stroke-miterlimit:10;}
	.st1{fill:#FFFFFF;stroke:#1D1D1B;strokeWidth:1.7698;strokeLinecap:round;stroke-linejoin:round;stroke-miterlimit:10;}
	.st2{fill:none;stroke:#1D1D1B;strokeWidth:1.7698;strokeLinecap:round;stroke-linejoin:round;stroke-miterlimit:10;}
	.st3{fill:#FFFFFF;stroke:#1D1D1B;strokeWidth:1.8655;strokeLinecap:round;stroke-linejoin:round;stroke-miterlimit:10;}
	.st4{fill:#1D1D1B;}
	.st5{fill:none;stroke:#1D1D1B;strokeWidth:1.3991;strokeLinecap:round;stroke-linejoin:round;stroke-miterlimit:10;}
</style>
<g>
	<line class="st0" x1="308.14" y1="391.92" x2="301.58" y2="481.85"/>
	<path class="st1" d="M301.08,482.6c6.13-8.33,16.05-13.76,26.38-14.4c10.32-0.65,20.85,3.49,27.97,11
		C339.99,490.45,318.92,489.43,301.08,482.6z"/>
	<line class="st2" x1="276.78" y1="387.92" x2="273.59" y2="481.24"/>
	<path class="st1" d="M272.8,481.69c-5.93-8.48-15.72-14.14-26.02-15.03c-10.31-0.89-20.93,2.99-28.22,10.32
		C233.71,488.61,254.79,488.09,272.8,481.69z"/>
	<path class="st3" d="M332.52,274.74c1.06,3.11,2.27,6.29,3.64,9.63c5.57,13.59,11.38,27.2,14.48,41.62
		c3.82,17.74,3.12,37.33-6.59,52.66c-9.75,15.4-28.06,24.62-46.29,24.5c-18.23-0.12-35.95-9.14-47.75-23.03
		c-12.91-15.19-21.36-38.71-18.76-58.48c3.29-25.03,11.03-49.49,22.78-71.83c7.93-15.08,18.68-30.02,34.64-35.98
		c9.37-3.5,20.82-3.2,28.4,3.33c8,6.89,9.7,18.5,10.12,29.05C327.64,256.96,329.4,265.58,332.52,274.74z"/>
	
		<ellipse transform="matrix(0.7071 -0.7071 0.7071 0.7071 3.043 252.7063)" class="st3" cx="306.57" cy="122.68" rx="110.38" ry="110.38"/>
	<path class="st4" d="M289.2,135.06c-0.92,8.66,5.36,16.42,14.02,17.34c8.66,0.92,16.42-5.36,17.34-14.02s-5.36-16.42-14.02-17.34
		C297.88,120.12,290.12,126.4,289.2,135.06z"/>
	<path class="st4" d="M226.11,136.09c-0.92,8.66,5.36,16.42,14.02,17.34c8.66,0.92,16.42-5.36,17.34-14.02
		c0.92-8.66-5.36-16.42-14.02-17.34C234.79,121.15,227.03,127.43,226.11,136.09z"/>
	<path class="st5" d="M283,188.77c7.68,14.41,25.58,19.87,39.99,12.2c14.41-7.68,19.87-25.58,12.2-39.99"/>
	<path class="st0" d="M268.23,228.48c-28.9,36.44-70.18,62.87-115.36,73.88"/>
	<path class="st3" d="M156.57,301.54c-5.95-10.7-20.17-15.94-31.64-11.65c-5.27,1.97-9.89,4.78-9.92,10.41
		c-0.02,5.63,4.22,10.7,9.46,12.75c5.24,2.04,11.22,1.44,16.5-0.49C146.26,310.63,151.89,304.68,156.57,301.54z"/>
	<g>
		<path class="st3" d="M212.38,335.37l-88.95,23.82c-1.27,0.34-2.57-0.41-2.91-1.68l-37.4-139.64c-0.34-1.27,0.41-2.57,1.68-2.91
			l88.95-23.82c1.27-0.34,2.57,0.41,2.91,1.68l37.4,139.64C214.4,333.73,213.65,335.03,212.38,335.37z"/>
		
			<rect x="114.46" y="224.04" transform="matrix(0.966 -0.2587 0.2587 0.966 -65.6082 47.8016)" class="st3" width="68.74" height="98.31"/>
	</g>
	<path class="st0" d="M325.27,234.11c17.31,3.11,33.21,13.42,43.13,27.94c9.91,14.53,13.71,33.09,10.3,50.35
		c-2.17,10.96-7.35,21.6-15.92,28.78c-12.92,10.82-31.72,12.23-47.98,7.79s-30.59-13.93-44.62-23.28"/>
	<path class="st3" d="M273.29,314.37c0.99,3.93,0.33,8.31-2.02,11.62c-2.35,3.31-6.41,5.41-10.45,5.13
		c-4.05-0.28-7.88-3.06-9.16-6.91c-1.08-3.25-0.36-6.8,0.49-10.12c-1.75-1.12-3.62-2.22-5.37-3.34c-2.6-1.67-5.52-3.92-5.38-7.01
		c0.11-2.32,2.08-4.24,4.3-4.91c2.22-0.68,4.62-0.33,6.87,0.24C261.17,301.28,271.13,305.77,273.29,314.37z"/>
</g>
</svg>
