<?xml version="1.0" encoding="utf-8"?>
<!-- Generator: Adobe Illustrator 24.2.3, SVG Export Plug-In . SVG Version: 6.00 Build 0)  -->
<svg version="1.1" id="Layer_1" xmlns="http://www.w3.org/2000/svg" xmlns:xlink="http://www.w3.org/1999/xlink" x="0px" y="0px"
	 viewBox="0 0 500 500" style="enable-background:new 0 0 500 500;" xml:space="preserve">
<style type="text/css">
	.st0{fill:#FFFFFF;stroke:#1D1D1B;strokeWidth:1.7698;strokeLinecap:round;stroke-linejoin:round;stroke-miterlimit:10;}
	.st1{fill:#FFFFFF;stroke:#1D1D1B;strokeWidth:1.8655;strokeLinecap:round;stroke-linejoin:round;stroke-miterlimit:10;}
	.st2{fill:none;stroke:#1D1D1B;strokeWidth:1.8655;strokeLinecap:round;stroke-linejoin:round;stroke-miterlimit:10;}
	.st3{fill:none;stroke:#1D1D1B;strokeWidth:1.7698;strokeLinecap:round;stroke-linejoin:round;stroke-miterlimit:10;}
	.st4{fill:#1D1D1B;}
</style>
<g>
	<g>
		<polygon class="st0" points="315.83,175.23 405.2,226.83 405.2,123.64 		"/>
		<path class="st0" d="M348.71,198.19h-50.35c-1.06,0-1.91-0.86-1.91-1.91v-43.01c0-1.06,0.86-1.91,1.91-1.91h50.35
			c1.06,0,1.91,0.86,1.91,1.91v43.01C350.62,197.34,349.76,198.19,348.71,198.19z"/>
		<path class="st0" d="M418.1,235.84h-16.51c-0.76,0-1.38-0.62-1.38-1.38V110.5c0-0.76,0.62-1.38,1.38-1.38h16.51
			c0.76,0,1.38,0.62,1.38,1.38v123.95C419.49,235.22,418.87,235.84,418.1,235.84z"/>
		<line class="st0" x1="322.15" y1="199.11" x2="322.15" y2="256.96"/>
	</g>
	<path class="st1" d="M134.73,331.29c-5.33,5.03-14.72,4.82-19.82-0.44c-5.1-5.26-5.02-14.65,0.17-19.82
		c5.19-5.17,14.59-5.21,19.82-0.09c5.24,5.12,5.4,14.52,0.35,19.82"/>
	<path class="st1" d="M158.72,257.01c-1.29,2.78-2.72,5.61-4.32,8.57c-6.49,12.05-13.2,24.09-17.48,37.15
		c-5.27,16.06-6.54,34.28,0.96,49.43c7.53,15.22,23.6,25.56,40.5,27.23c16.9,1.67,34.2-4.96,46.49-16.67
		c13.45-12.82,23.57-33.79,23.09-52.35c-0.61-23.52-5.39-46.93-14.1-68.79c-5.88-14.74-14.38-29.64-28.58-36.73
		c-8.34-4.16-18.98-5-26.64,0.31c-8.09,5.6-10.8,16.19-12.21,25.93C164.99,241.02,162.51,248.83,158.72,257.01z"/>
	
		<ellipse transform="matrix(0.7071 -0.7071 0.7071 0.7071 -32.7444 165.4824)" class="st1" cx="183.38" cy="122.27" rx="102.85" ry="102.85"/>
	<line class="st2" x1="165.18" y1="377.38" x2="149.4" y2="470.74"/>
	<line class="st3" x1="192.66" y1="382.49" x2="177.84" y2="466.52"/>
	<path class="st0" d="M150.4,472.51c-6.61-7.01-16.4-10.9-26.03-10.33c-9.62,0.57-18.89,5.59-24.62,13.34
		C115.3,484.18,134.67,480.85,150.4,472.51z"/>
	<path class="st0" d="M178.03,466.77c6.61-7.01,16.4-10.9,26.03-10.33c9.62,0.57,18.89,5.59,24.62,13.34
		C213.13,478.44,193.76,475.11,178.03,466.77z"/>
	<path class="st1" d="M315.39,228.86c2.11,2.58,6.03,3.29,9.14,2.08c3.11-1.21,5.41-4.05,6.5-7.21c1.92-5.57-0.06-12.48-5.1-15.55
		c-5.03-3.07-12.65-1.22-15.11,4.13c-2.49,5.42,0.48,11.66,3.41,16.86"/>
	<path class="st2" d="M161.74,229.09c-18.53,0.4-36.96,4.95-53.54,13.23c-9.83,4.91-19.7,12-22.65,22.59
		c-2.52,9.06,0.71,18.95,6.29,26.53c5.58,7.57,13.28,13.27,20.86,18.84"/>
	<path class="st2" d="M225.93,223.31c8.53,16.45,20.75,30.98,35.49,42.22c8.74,6.66,19.46,12.39,30.26,10.36
		c9.25-1.73,16.7-9,21.03-17.35c4.34-8.35,6.05-17.77,7.7-27.03"/>
	<path class="st4" d="M198.18,109.12c0,9.13-6.99,16.53-15.61,16.53c-8.62,0-15.61-7.4-15.61-16.53c0-9.13,6.99-16.53,15.61-16.53
		C191.2,92.59,198.18,99.99,198.18,109.12z"/>
	<path class="st4" d="M253.22,164.02c-2.43,12.56-14.02,22.74-25.88,22.74c-11.86,0-19.51-10.18-17.08-22.74
		c2.43-12.56,14.02-22.74,25.88-22.74C248.01,141.27,255.65,151.46,253.22,164.02z"/>
	<path class="st4" d="M276.24,107.28c0,9.13-6.99,16.53-15.61,16.53c-8.62,0-15.61-7.4-15.61-16.53c0-9.13,6.99-16.53,15.61-16.53
		C269.25,90.75,276.24,98.15,276.24,107.28z"/>
</g>
</svg>
