<svg version="1.2" xmlns="http://www.w3.org/2000/svg" viewBox="0 0 500 500" width="500" height="500">
	<title>14-svg</title>
	<style>
		.s0 { fill: none;stroke: #1d1d1b;strokeLinecap: round;stroke-linejoin: round;strokeWidth: 1.4 } 
		.s1 { fill: none;stroke: #1d1d1b;strokeLinecap: round;stroke-linejoin: round;strokeWidth: 1.8 } 
		.s2 { fill: #ffffff;stroke: #1d1d1b;strokeLinecap: round;stroke-linejoin: round;strokeWidth: 1.8 } 
		.s3 { fill: #ffffff;stroke: #1d1d1b;strokeLinecap: round;stroke-linejoin: round;strokeWidth: 1.9 } 
		.s4 { fill: none;stroke: #1d1d1b;strokeLinecap: round;stroke-linejoin: round;strokeWidth: 1.9 } 
		.s5 { fill: none;stroke: #1d1d1b;strokeLinecap: round;stroke-linejoin: round;strokeWidth: 1.7 } 
		.s6 { fill: #1d1d1b } 
	</style>
	<g id="Layer">
		<path id="Layer" class="s0" d="m328 160.2l118.3-48.4"/>
		<path id="Layer" class="s1" d="m199.7 379.8l-6 84.3"/>
		<path id="Layer" class="s2" d="m194.3 464.6c6.2-7.1 15.6-11.2 24.9-11 9.4 0.1 18.6 4.6 24.5 11.9-14.8 9.1-33.8 6.6-49.4-0.9z"/>
		<path id="Layer" class="s3" d="m144.6 268.1c-0.7 2.9-1.5 5.9-2.4 9-3.8 12.8-7.7 25.6-9.2 38.8-1.7 16.4 0.7 34 10.9 46.9 10.2 12.9 27.6 19.5 44 17.7 16.4-1.8 31.5-11.6 40.9-25.2 10.2-14.9 15.6-36.9 11.4-54.5-5.3-22.2-14.6-43.5-27.3-62.5-8.6-12.9-19.6-25.3-34.6-29.2-8.7-2.3-19-0.9-25.2 5.7-6.6 6.9-7.1 17.5-6.4 27.1 0.6 9.7-0.2 17.6-2.1 26.2z"/>
		<path id="Layer" class="s3" d="m56.9 153.8c13.9 53.5 68.4 85.5 121.9 71.6 53.5-13.9 85.6-68.4 71.7-121.9-13.9-53.5-68.4-85.5-121.9-71.6-53.5 13.9-85.6 68.4-71.7 121.9z"/>
		<path id="Layer" fill-rule="evenodd" class="s0" d="m148.4 161.2c3 14.4 17.3 23.7 31.7 20.6 14.5-3.1 23.7-17.3 20.6-31.8z"/>
		<path id="Layer" class="s4" d="m177.2 384.2l4.2 81.6"/>
		<path id="Layer" class="s2" d="m181.8 466.5c-5.4-7.7-14.3-12.8-23.6-13.6-9.3-0.8-18.9 2.8-25.5 9.4 13.7 10.5 32.8 10 49.1 4.2z"/>
		<path id="Layer" fill-rule="evenodd" class="s5" d="m146.6 232.5c-12.4 5.8-25 11.7-35.8 19.5-10.8 7.9-19.8 17.9-22.8 29.1-3.1 11.1 0.7 23.4 11.5 29.6 6.7 3.9 15.3 5.1 23.6 5.9"/>
		<path id="Layer" class="s3" d="m124.3 316c7.7 1.5 13.9 8.6 14.3 16.5 0.3 7.8-5.2 15.5-12.7 17.7-4.3-0.3-9.3-1.7-9.8-6.1-0.6-4.3 2.3-8.8 6.4-10.2-2.2-5.7-0.5-12.3 1.8-17.9z"/>
		<path id="Layer" fill-rule="evenodd" class="s4" d="m203.5 224.8c41.3-8.1 79.8-30.3 107.4-62"/>
		<path id="Layer" class="s3" d="m310.8 162.8c7.8 7.8 21.5 8.9 30.4 2.3 4.1-3 7.5-6.6 6.1-11.5-1.4-4.9-6.3-8.3-11.4-8.8-5.1-0.5-10.1 1.5-14.3 4.5-4.1 3-7.5 9.6-10.8 13.5z"/>
		<path id="Layer" class="s6" d="m125.4 134.8c-0.3-0.7-0.6-1.5-0.7-2.3-1.7-7.7 3.3-15.3 11-16.9 7.7-1.7 15.3 3.3 16.9 11 0.6 2.8 0.3 5.7-0.7 8.2 0 0-26.5 0-26.5 0z"/>
		<path id="Layer" class="s6" d="m199.7 100.9c7.8-1.7 15.3 3.2 17 11 0.1 0.8 0.2 1.5 0.2 2.3l-21.8 12.7c-3.2-2-5.5-5.2-6.4-9.1-1.6-7.7 3.3-15.3 11-16.9z"/>
	</g>
</svg>