<?xml version="1.0" encoding="utf-8"?>
<!-- Generator: Adobe Illustrator 24.2.3, SVG Export Plug-In . SVG Version: 6.00 Build 0)  -->
<svg version="1.1" id="Layer_1" xmlns="http://www.w3.org/2000/svg" xmlns:xlink="http://www.w3.org/1999/xlink" x="0px" y="0px"
	 viewBox="0 0 500 500" style="enable-background:new 0 0 500 500;" xml:space="preserve">
<style type="text/css">
	.st0{fill:#FFFFFF;stroke:#1D1D1B;strokeWidth:1.8655;strokeLinecap:round;stroke-linejoin:round;stroke-miterlimit:10;}
	.st1{fill:#1D1D1B;}
	.st2{fill:none;stroke:#1D1D1B;strokeWidth:1.3991;strokeLinecap:round;stroke-linejoin:round;stroke-miterlimit:10;}
	.st3{fill:none;stroke:#1D1D1B;strokeWidth:1.8655;strokeLinecap:round;stroke-linejoin:round;stroke-miterlimit:10;}
	.st4{fill:none;stroke:#1D1D1B;strokeWidth:1.7698;strokeLinecap:round;stroke-linejoin:round;stroke-miterlimit:10;}
	.st5{fill:#FFFFFF;stroke:#1D1D1B;strokeWidth:1.7698;strokeLinecap:round;stroke-linejoin:round;stroke-miterlimit:10;}
</style>
<g>
	<path class="st0" d="M295.22,257.95c0.7,2.77,1.52,5.61,2.47,8.61c3.86,12.18,7.92,24.39,9.58,37.1
		c2.04,15.65,0.04,32.57-9.47,45.17c-9.55,12.65-26.08,19.34-41.87,17.93c-15.79-1.4-30.5-10.49-39.74-23.37
		c-10.11-14.09-15.75-35.08-12.08-52.02c4.64-21.46,13.09-42.1,24.88-60.63c7.95-12.5,18.34-24.69,32.59-28.71
		c8.37-2.37,18.27-1.29,24.38,4.91c6.45,6.54,7.09,16.73,6.7,25.9C292.26,242.19,293.18,249.78,295.22,257.95z"/>
	
		<ellipse transform="matrix(0.7071 -0.7071 0.7071 0.7071 -5.2883 247.4174)" class="st0" cx="296.02" cy="130.09" rx="95.99" ry="95.99"/>
	<path class="st1" d="M321.51,123.07c-6.86-3.2-15.02-0.23-18.22,6.63c-0.53,1.13-0.83,2.29-1.03,3.46
		c3.86-4.82,10.62-6.6,16.47-3.88c5.74,2.68,8.7,8.81,7.66,14.77c0.67-0.84,1.28-1.74,1.76-2.76
		C331.35,134.43,328.38,126.27,321.51,123.07z"/>
	<path class="st1" d="M261.11,94.43c-6.86-3.2-15.02-0.23-18.22,6.63c-0.54,1.17-0.85,2.37-1.05,3.58
		c3.96-3.92,10.07-5.21,15.41-2.72c5.7,2.66,8.65,8.73,7.68,14.64c1.12-1.11,2.1-2.4,2.81-3.92
		C270.94,105.79,267.97,97.63,261.11,94.43z"/>
	<path class="st2" d="M251.21,146.08c-6,12.87-0.43,28.17,12.44,34.17c12.87,6,28.17,0.43,34.17-12.44
		c-9.01,1.38-18.32-0.13-26.56-4.03C263.01,159.89,255.86,153.92,251.21,146.08z"/>
	<line class="st3" x1="278.91" y1="366.72" x2="284.7" y2="456.72"/>
	<line class="st4" x1="252.77" y1="371.65" x2="258.56" y2="452.65"/>
	<path class="st5" d="M283.76,458.37c6.17-6.55,15.31-10.18,24.29-9.64c8.98,0.53,17.63,5.22,22.98,12.45
		C316.52,469.26,298.44,466.16,283.76,458.37z"/>
	<path class="st5" d="M257.97,453.01c-6.17-6.55-15.31-10.18-24.29-9.64c-8.98,0.53-17.63,5.22-22.98,12.45
		C225.21,463.9,243.29,460.8,257.97,453.01z"/>
	<path class="st3" d="M386.2,291.96c-35.79-10.33-68.1-32.38-90.75-61.95"/>
	<path class="st3" d="M235.98,215.02c-15.43-1.71-82.28-46.28-111.78-83.42"/>
	<path class="st0" d="M388.42,291.75c1.01-3.22,2.09-6.57,4.4-9.03c2.31-2.46,6.25-3.75,9.16-2.02c2.9,1.73,3.08,6.96-0.09,8.12
		c5.16,0.56,10.75,2.49,15.65,4.2c2.67,0.93,5.66,2.47,6.12,5.27c0.53,3.18-2.6,5.78-5.61,6.94c-5.42,2.1-11.67,1.96-16.99-0.38
		C395.74,302.51,390.55,297.16,388.42,291.75z"/>
	<g>
		<path class="st0" d="M172.17,63.16L95.59,46.81c-2.82,26.32,8,54.1,29.48,69.57C149.3,110.94,168.58,87.73,172.17,63.16z"/>
		<line class="st3" x1="124.06" y1="116.65" x2="118.61" y2="142.17"/>
		<polygon class="st0" points="118.69,141.79 93.76,157.95 133.23,166.38 		"/>
		<path class="st3" d="M102.41,93.32c-2.42,4.11-7.83,5.89-12.48,4.82c-4.65-1.07-8.48-4.56-10.86-8.69
			c-3.3-5.75-3.95-13.3-0.46-18.93c3.49-5.64,11.54-8.38,17.24-5"/>
		<path class="st3" d="M158.15,99c1.09,5.21,4.89,9.88,9.93,11.62c5.04,1.74,11.13,0.26,14.51-3.86c3.23-3.94,3.7-9.52,2.84-14.54
			c-0.64-3.72-1.99-7.45-4.65-10.14c-2.65-2.69-6.8-4.12-10.35-2.83"/>
	</g>
	<path class="st0" d="M122.97,137.51c-2.39,2-6.1,1.97-8.74,0.32c-2.64-1.65-4.26-4.66-4.71-7.74c-0.8-5.45,2.23-11.43,7.37-13.38
		c5.15-1.94,11.81,1.07,13.13,6.42c1.34,5.41-2.46,10.61-6.05,14.87"/>
</g>
</svg>
