<svg width="44" height="73" viewBox="0 0 44 73" fill="none" xmlns="http://www.w3.org/2000/svg">
<path d="M4.58454 3.3588C4.58454 9.52434 -2.00679 35.1853 11.2966 31.9448C15.434 30.937 19.3711 29.1724 22.6231 26.4314C24.1868 25.1134 26.5078 22.8001 28.616 22.3562C38.8902 20.1933 34.0549 53.6384 33.7099 57.2947" stroke="white" strokeWidth="5" strokeLinecap="round"/>
<path d="M23.3415 55.07C23.3415 55.859 23.4504 56.6151 23.6973 57.3733C24.7633 60.6476 26.2759 64.0572 28.3412 66.811C29.021 67.7174 29.9758 69.0226 31.0939 69.4326C32.3315 69.8863 33.7539 68.3937 34.4271 67.6162C36.0508 65.7409 37.4103 63.6362 38.8276 61.6053C39.5652 60.5483 40.1986 59.9417 41.3743 59.4518" stroke="white" strokeWidth="5" strokeLinecap="round"/>
</svg>