<svg width="753" height="470" viewBox="0 0 753 470" fill="none" xmlns="http://www.w3.org/2000/svg">
<path d="M3.43384 225.393C3.43384 218.121 6.22689 210.592 7.98689 203.664C14.6063 177.609 21.2501 151.606 29.3095 125.947C36.6911 102.447 44.2011 77.9446 55.8614 56.1639C56.4701 55.027 67.0549 34.4761 69.1599 37.3207C73.0171 42.5332 72.2199 54.2465 72.4958 60.131C73.0308 71.5445 72.1765 82.9021 73.2621 94.3013C73.5929 97.7741 74.8951 113.597 81.7822 105.571C89.5379 96.5335 94.5723 84.7877 99.7239 74.1958C106.492 60.2793 112.709 46.1082 119.063 32.0013C119.891 30.1626 127.029 11.4868 130.423 15.9529C133.843 20.4527 132.638 31.0787 132.542 35.788C132.057 59.5611 127.194 82.6818 123.165 106.022C117.69 137.742 110.38 171.277 114.33 203.664C114.929 208.582 116.55 213.176 120.325 216.557C126.269 221.882 134.482 215.864 139.484 212.049C155.117 200.128 165.933 182.104 173.745 164.31C174.259 163.138 175.781 160.039 173.564 163.363C168.177 171.444 165.97 181.223 164.368 190.681C162.825 199.793 161.185 215.99 168.2 223.59C177.713 233.896 201.358 191.247 188.801 178.69C185.878 175.767 187.708 178.961 192.047 178.961C214.708 178.961 233.155 157.086 246.142 141.364C263.27 120.631 277.574 93.5681 282.882 67.0281C286.244 50.2204 289.828 29.3663 280.944 13.5186C278.091 8.43054 271.246 0.691965 264.715 3.64622C261.436 5.12957 259.433 7.70287 258.088 10.9942C252.877 23.7496 251.618 38.1317 250.921 51.7461C248.256 103.773 244.148 156.369 247.675 208.398C247.682 208.503 247.845 213.627 248.577 213.627C250.769 213.627 256.808 196.264 257.502 194.648C264.564 178.21 271.488 160.27 283.288 146.503C290.176 138.468 293.598 148.849 295.369 155.79C298.203 166.892 298.568 187.164 310.786 193.206C324.956 200.213 342.139 179.556 349.375 170.666C356.444 161.981 362.746 153.135 368.579 143.618C372.981 136.436 358.786 157.39 354.874 164.851C347.498 178.92 341.173 195.407 342.252 211.598C342.962 222.241 353.555 208.033 355.866 205.017C366.021 191.763 372.742 174.333 377.008 158.269C377.515 156.361 378.413 146.339 380.119 151.823C383.777 163.582 388.216 174.776 394.003 185.678C395.739 188.947 400.505 200.061 405.454 199.878C413.283 199.588 421.533 184.379 425.83 178.78C428.804 174.905 432.059 170.134 436.559 174.633C444.421 182.495 445.508 195.813 451.976 204.927C459.573 215.631 475.271 180.108 482.179 175.895C493.955 168.715 497.159 207.318 509.227 204.386C516.552 202.606 523.832 195.646 529.513 191.132C536.69 185.43 543.045 178.962 549.618 172.605C554.703 167.686 560.424 164.843 567.109 168.502C573.741 172.132 579.086 177.692 586.133 180.674C605.214 188.747 629.233 165.617 641.265 154.122C649.735 146.03 662.101 134.965 664.391 122.882C665.46 117.238 660.352 113.549 654.879 114.858C628.06 121.271 630.11 167.246 634.864 187.21C643.803 224.754 702.606 184.206 716.277 169.314C716.901 168.634 724.764 157.4 718.937 160.839C708.457 167.024 703.225 184.418 701.446 195.64C700.66 200.602 700.207 207.454 703.295 211.914C706.796 216.972 715.936 197.088 716.683 195.64C726.892 175.858 732.215 152.43 737.104 130.816C742.606 106.494 749.442 81.4717 749.907 56.3893C750.109 45.495 749.593 34.7463 749.141 23.887C748.409 6.33615 743.266 58.5742 741.928 76.0891C739.494 107.929 740.633 140.17 742.829 172.019C744.141 191.037 744.157 208.232 741.026 227.016" stroke="black" strokeWidth="5" strokeLinecap="round"/>
<path d="M152.737 287.062C152.737 285.987 153.459 285.136 153.459 284.177C153.459 279.027 135.488 282.323 133.534 282.554C85.5828 288.203 37.7559 325.844 16.2364 368.205C6.2649 387.834 -1.63504 412.248 7.53608 433.525C17.8393 457.429 43.2926 457.797 66.2748 454.217C96.9581 449.436 127.19 431.709 150.168 411.346C161.19 401.578 181.417 384.467 180.461 367.844C178.924 341.088 130.825 356.614 117.801 364.959C116.954 365.502 103.783 374.252 107.207 377.131C109.326 378.913 114.046 378.869 116.403 378.889C127.851 378.987 138.912 375.06 149.762 371.901C164.797 367.524 215.846 349.852 208.907 383.622C204.646 404.356 192.595 423.387 184.834 442.947C181.599 451.102 174.094 462.913 184.383 467.2" stroke="black" strokeWidth="5" strokeLinecap="round"/>
<path d="M263.092 390.114C250.611 400.254 238.205 410.276 228.381 423.202C221.907 431.72 212.593 443.762 211.341 454.848C210.909 458.672 215.194 456.253 217.021 455.299C228.779 449.155 238.921 440.006 247.675 430.144C262.624 413.303 276.595 391.096 284.009 369.647C284.701 367.645 286.965 354.002 284.505 363.066C280.582 377.519 280.871 394.071 283.558 408.731C285.019 416.697 287.089 432.051 296.857 434.427C305.078 436.427 313.621 431.029 319.983 426.583C338.951 413.324 355.917 396.092 371.644 379.204C392.393 356.924 410.729 333.541 416.994 303.2C420.274 287.317 416.422 271.133 410.593 256.227C407.229 247.626 402.009 237.135 393.733 232.245C384.223 226.625 376.856 238.304 373.402 245.859C363.009 268.594 360.583 295.301 358.571 319.925C356.614 343.878 356.442 368.423 359.743 392.277C361.393 404.203 364.713 423.436 375.881 430.505C394.709 442.421 422.498 428.72 439.083 418.874C455.845 408.924 471.843 396.005 485.154 381.729C485.412 381.452 492.324 371.114 491.105 371.451C480.813 374.29 470.683 388.322 465.41 396.785C458.667 407.607 450.859 423.581 455.447 436.771C459.176 447.492 476.11 430.339 478.933 427.169C495.793 408.237 503.949 382.891 510.354 358.873C519.16 325.85 525.267 290.251 525.996 255.957C526.259 243.632 521.345 280.178 519.595 292.381C515.681 319.678 511.913 349.086 514.366 376.68C515.467 389.061 518.49 402.44 528.882 410.309C538.966 417.946 549.503 404.235 555.253 396.876C565.628 383.596 572.15 368.165 578.559 352.743C578.994 351.697 582.484 340.363 583.248 345.71C585.477 361.315 585.569 377.145 589.829 392.458C591.821 399.618 595.214 406.597 600.378 412.022C609.602 421.714 623.468 419.249 635.54 420.137" stroke="black" strokeWidth="5" strokeLinecap="round"/>
<path d="M585.232 306.271C586.561 306.271 586.996 305.311 587.145 304.014C587.431 301.511 586.158 299.304 583.947 298.215C579.975 296.258 577.071 300.461 576.831 303.952C576.473 309.168 578.439 313.844 580.718 318.403" stroke="black" strokeWidth="5" strokeLinecap="round"/>
<path d="M588.336 305.425C588.792 302.459 595.454 293.883 598.68 298.591C601.621 302.882 597.81 307.617 595.138 310.958C589.631 317.841 581.212 322.554 573.665 326.866" stroke="black" strokeWidth="5" strokeLinecap="round"/>
</svg>
